<?xml version="1.0" encoding="utf-8"?>
<!-- Generator: Adobe Illustrator 16.0.0, SVG Export Plug-In . SVG Version: 6.00 Build 0)  -->
<!DOCTYPE svg PUBLIC "-//W3C//DTD SVG 1.1//EN" "http://www.w3.org/Graphics/SVG/1.1/DTD/svg11.dtd">
<svg version="1.1" id="Icons" xmlns="http://www.w3.org/2000/svg" xmlns:xlink="http://www.w3.org/1999/xlink" x="0px" y="0px"
	 width="595.279px" height="841.891px" viewBox="0 0 595.279 841.891" enable-background="new 0 0 595.279 841.891"
	 xml:space="preserve">
<g>
	<path fill="none" stroke="#D3D3D3" stroke-width="10" stroke-linecap="round" stroke-linejoin="round" stroke-miterlimit="10" d="
		M241.851,311.916c0.224-63.1,75.08-114.201,167.404-114.201c92.473,0,167.423,51.25,167.423,114.48
		c0,36.033-24.389,68.123-62.449,89.106l14.622,75.452l-73.053-54.654c-14.789,2.92-30.378,4.576-46.543,4.576
		c-6.604,0-13.097-0.335-19.495-0.837"/>
	<path fill="none" stroke="#D3D3D3" stroke-width="10" stroke-linecap="round" stroke-linejoin="round" stroke-miterlimit="10" d="
		M241.851,311.916c-12.035-1.693-24.48-2.586-37.224-2.586c-102.741,0-186.024,57.649-186.024,128.785
		c0,40.535,27.104,76.643,69.387,100.249L71.75,625.572l81.162-63.825c16.445,3.293,33.745,5.153,51.715,5.153
		c102.742,0,186.025-57.668,186.025-128.785c0-4.148-0.335-8.241-0.893-12.277C381.984,369.081,321.098,323.059,241.851,311.916z"/>
</g>
<line fill="none" stroke="#D3D3D3" stroke-width="8" stroke-linecap="round" stroke-linejoin="round" stroke-miterlimit="10" x1="120.916" y1="393.042" x2="288.339" y2="393.042"/>
<line fill="none" stroke="#D3D3D3" stroke-width="8" stroke-linecap="round" stroke-linejoin="round" stroke-miterlimit="10" x1="120.916" y1="430.246" x2="288.339" y2="430.246"/>
<line fill="none" stroke="#D3D3D3" stroke-width="8" stroke-linecap="round" stroke-linejoin="round" stroke-miterlimit="10" x1="120.916" y1="467.451" x2="288.339" y2="467.451"/>
</svg>
